# xmcd
#
# Track frame offsets:
#	150
#	9510
#	22350
#	34315
#	43865
#	52250
#	65100
#	75790
#	89172
#	102512
#	115472
#	125520
#	136557
#	151015
#	164360
#	173697
#	184370
#	198370
#	211802
#	223655
#	236962
#
# Disc length: 3335 seconds
#
# Revision: 4
# Processed by: cddbd v1.5.2PL0 Copyright (c) Steve Scherf et al.
# Submitted via: audiograbber 1.83.01
#
DISCID=350d0515
DTITLE=Various Artist - The Greatest Country Stars Of The 20th Century (Reader
DTITLE='s Digest) [Disc 3]
DYEAR=2003
DGENRE=Country
TTITLE0=Flatt and Scruggs - The Ballad Of Jed Clampett (1963)
TTITLE1=Bobby Bare - Detroit City (1963)
TTITLE2=Skeeter Davis - The End Of The World (1963)
TTITLE3=Jimmy Little - One Road (1964)
TTITLE4=Roger Miller - Dang Me (1964)
TTITLE5=Jerry Wallace - In The Misty Moonlight (1964)
TTITLE6=The Statler Brothers - Flowers On The Wall (1965)
TTITLE7=Glen Campbell - Gentle On My Mind (1967)
TTITLE8=Tammy Wynette - D-I-V-O-R-C-E (1968)
TTITLE9=Porter Wagoner - The Carroll County Accident (1968)
TTITLE10=Lee Conway - Wanted Man (1970)
TTITLE11=Conway Twitty - Hello Darlin' (1970)
TTITLE12=Jerry Lee Lewis - Me And Bobby McGee (1971)
TTITLE13=Lynn Anderson - Rose Garden (1971)
TTITLE14=Charley Pride - Kiss An Angel Good Mornin' (1971)
TTITLE15=Jerry Reed - Amos Moses (1971)
TTITLE16=Dolly Parton - Coat Of Many Colours (1971)
TTITLE17=Faron Young - It's Four In The Morning (1972)
TTITLE18=Tom T. Hall - Pamela Brown (1972)
TTITLE19=Tanya Tucker - Delta Dawn (1972)
TTITLE20=Reg Lindsay - July You're A Woman (1973)
EXTD=CD 3 of 4 YEAR: 2003
EXTT0=
EXTT1=
EXTT2=
EXTT3=
EXTT4=
EXTT5=
EXTT6=
EXTT7=
EXTT8=
EXTT9=
EXTT10=
EXTT11=
EXTT12=
EXTT13=
EXTT14=
EXTT15=
EXTT16=
EXTT17=
EXTT18=
EXTT19=
EXTT20=
PLAYORDER=
